<svg width="20" height="16" viewBox="0 0 20 16" fill="none" xmlns="http://www.w3.org/2000/svg">
<path d="M19.7519 2.17034C19.0354 2.48165 18.2774 2.68674 17.5017 2.77914C18.3169 2.3018 18.9299 1.54347 19.2258 0.646363C18.4551 1.09703 17.6133 1.41324 16.7365 1.58144C16.3673 1.19449 15.9233 0.88666 15.4314 0.676661C14.9395 0.466662 14.41 0.358882 13.8752 0.35987C11.7098 0.35987 9.95739 2.08678 9.95739 4.21558C9.95585 4.51169 9.98978 4.80692 10.0585 5.09496C8.5057 5.02216 6.98524 4.62606 5.59434 3.93198C4.20344 3.2379 2.97273 2.26113 1.98095 1.06416C1.63301 1.65073 1.44901 2.31997 1.44816 3.00197C1.44816 4.33893 2.14569 5.52072 3.19895 6.21307C2.57492 6.19826 1.96368 6.0331 1.41712 5.73161V5.77936C1.41712 7.64952 2.77 9.20533 4.56058 9.55947C4.22387 9.64923 3.87689 9.69471 3.52841 9.69476C3.28114 9.69519 3.03444 9.6712 2.79189 9.62313C3.28967 11.1551 4.73845 12.2692 6.45462 12.301C5.0601 13.3758 3.34801 13.9566 1.58742 13.9524C1.27492 13.9519 0.962697 13.9333 0.652344 13.8966C2.44339 15.0403 4.52534 15.6453 6.65039 15.6395C13.8668 15.6395 17.8093 9.7624 17.8093 4.66522C17.8093 4.4981 17.8049 4.33098 17.7969 4.16783C18.5622 3.62352 19.2242 2.9471 19.7519 2.17034Z" fill="#1C2752"/>
</svg>
